<svg xmlns="http://www.w3.org/2000/svg" version="1.1" xmlns:xlink="http://www.w3.org/1999/xlink" width="2000" height="807" viewBox="0 0 2000 807"><svg xml:space="preserve" width="2000" height="807" data-version="2" data-id="lg_Vuezzztrsc03JbilhZ" viewBox="0 0 807 807" x="0" y="0"><rect width="100%" height="100%" fill="transparent"></rect><circle r="50" fill="red" transform="translate(403.5 403.5)scale(7.9068)"></circle><path fill="#fff" d="M538.468 245.602q8.33 21.29 8.33 48.45 0 27.16-8.48 49.38-8.49 22.21-24.54 38.26-30.55 30.55-89.8 42.9l5.56-10.19 121.89 185.16 21.6 9.56 43.52 4.94v26.23h-105.85l-138.87-221.88 25.92 11.11h-82.7v177.44l46.29 7.1v26.23h-151.21v-26.23l47.83-7.1v-398.7l-47.83-7.1v-26.23h152.14q147.81 0 176.2 70.67m-223.42-33.33v183.92h45.67q99.99 0 120.97-58.32 6.48-17.59 6.48-38.11t-5.86-36.88q-5.86-16.35-19.75-27.46-28.7-23.15-97.21-23.15Z"></path><rect width="406.42" height="465.36" x="-203.21" y="-232.68" fill="none" rx="0" ry="0" transform="translate(413.84 408.11)"></rect></svg></svg>